<svg xmlns="http://www.w3.org/2000/svg" width="140" height="140" id="box"><path fill="#33363a" d="M131.797 50.469c-.014-.083-.038-.159-.045-.235-.031-.15-.052-.297-.099-.443-.017-.088-.051-.173-.079-.258a8.399 8.399 0 0 0-.131-.388 3.567 3.567 0 0 0-.128-.255 2.22 2.22 0 0 0-.182-.357c-.048-.082-.1-.164-.149-.242a2.7 2.7 0 0 0-.223-.328 6.794 6.794 0 0 0-.183-.229c-.083-.102-.179-.198-.27-.29a1.859 1.859 0 0 0-.205-.202c-.1-.091-.2-.182-.301-.261-.081-.058-.159-.121-.24-.178-.034-.021-.057-.045-.09-.068L72.95 9.053a5.327 5.327 0 0 0-5.899 0L10.535 46.736c-.033.023-.061.047-.09.068-.087.057-.164.12-.244.178-.104.079-.2.169-.296.261a1.755 1.755 0 0 0-.212.202 3.14 3.14 0 0 0-.264.29 3.583 3.583 0 0 0-.186.229 2.68 2.68 0 0 0-.22.328c-.058.078-.105.16-.157.242-.062.114-.126.231-.176.357-.047.079-.083.169-.122.255-.055.131-.096.25-.139.388-.028.085-.061.17-.078.258-.045.146-.067.292-.099.443-.012.076-.033.152-.041.235a5.376 5.376 0 0 0-.051.692v37.68c0 .236.021.468.051.698.008.07.029.148.041.228.031.152.054.293.099.442.018.088.05.176.078.261.043.128.084.255.139.389.039.082.075.168.122.255.05.12.114.234.176.354.052.082.1.164.157.245.067.118.138.219.22.323.058.078.119.153.186.229.08.097.171.196.264.29.063.069.138.141.212.206.096.09.192.177.296.256.08.058.157.123.244.179.029.023.057.045.09.069l56.516 37.683a5.317 5.317 0 0 0 2.953.891 5.292 5.292 0 0 0 2.946-.891l56.523-37.683c.033-.024.056-.046.09-.069.081-.056.159-.121.24-.179.101-.079.201-.166.301-.256.071-.065.142-.137.205-.206.091-.094.187-.192.27-.29.061-.076.125-.151.183-.229.081-.104.155-.205.223-.323.05-.082.102-.164.149-.245.072-.12.13-.234.182-.354.043-.087.09-.173.128-.255.048-.134.088-.261.131-.389.028-.085.062-.173.079-.261.047-.149.067-.291.099-.442.007-.079.031-.157.045-.228.026-.229.041-.462.041-.698v-37.68a6.202 6.202 0 0 0-.042-.693zM75.312 23.41l41.645 27.754-18.6 12.438-23.045-15.409V23.41zm-10.625 0v24.783l-23.04 15.409-18.602-12.438L64.687 23.41zM18.789 61.104l13.305 8.899-13.305 8.893V61.104zm45.898 55.486L23.045 88.833l18.603-12.437 23.039 15.413v24.781zm5.317-34.02L51.209 70.002l18.795-12.573L88.8 70.002 70.004 82.57zm5.308 34.02V91.809l23.046-15.413 18.599 12.437-41.645 27.757zm45.896-37.695-13.289-8.893 13.289-8.899v17.792z"></path><path fill="none" stroke="#33363a" stroke-linecap="round" stroke-linejoin="round" stroke-miterlimit="10" stroke-width="3" d="M131.797 50.469c-.014-.083-.038-.159-.045-.235-.031-.15-.052-.297-.099-.443-.017-.088-.051-.173-.079-.258a8.399 8.399 0 0 0-.131-.388 3.567 3.567 0 0 0-.128-.255 2.22 2.22 0 0 0-.182-.357c-.048-.082-.1-.164-.149-.242a2.7 2.7 0 0 0-.223-.328 6.794 6.794 0 0 0-.183-.229c-.083-.102-.179-.198-.27-.29a1.859 1.859 0 0 0-.205-.202c-.1-.091-.2-.182-.301-.261-.081-.058-.159-.121-.24-.178-.034-.021-.057-.045-.09-.068L72.95 9.053a5.327 5.327 0 0 0-5.899 0L10.535 46.736c-.033.023-.061.047-.09.068-.087.057-.164.12-.244.178-.104.079-.2.169-.296.261a1.755 1.755 0 0 0-.212.202 3.14 3.14 0 0 0-.264.29 3.583 3.583 0 0 0-.186.229 2.68 2.68 0 0 0-.22.328c-.058.078-.105.16-.157.242-.062.114-.126.231-.176.357-.047.079-.083.169-.122.255-.055.131-.096.25-.139.388-.028.085-.061.17-.078.258-.045.146-.067.292-.099.443-.012.076-.033.152-.041.235a5.376 5.376 0 0 0-.051.692v37.68c0 .236.021.468.051.698.008.07.029.148.041.228.031.152.054.293.099.442.018.088.05.176.078.261.043.128.084.255.139.389.039.082.075.168.122.255.05.12.114.234.176.354.052.082.1.164.157.245.067.118.138.219.22.323.058.078.119.153.186.229.08.097.171.196.264.29.063.069.138.141.212.206.096.09.192.177.296.256.08.058.157.123.244.179.029.023.057.045.09.069l56.516 37.683a5.317 5.317 0 0 0 2.953.891 5.292 5.292 0 0 0 2.946-.891l56.523-37.683c.033-.024.056-.046.09-.069.081-.056.159-.121.24-.179.101-.079.201-.166.301-.256.071-.065.142-.137.205-.206.091-.094.187-.192.27-.29.061-.076.125-.151.183-.229.081-.104.155-.205.223-.323.05-.082.102-.164.149-.245.072-.12.13-.234.182-.354.043-.087.09-.173.128-.255.048-.134.088-.261.131-.389.028-.085.062-.173.079-.261.047-.149.067-.291.099-.442.007-.079.031-.157.045-.228.026-.229.041-.462.041-.698v-37.68a6.202 6.202 0 0 0-.042-.693zM75.312 23.41l41.645 27.754-18.6 12.438-23.045-15.409V23.41zm-10.625 0v24.783l-23.04 15.409-18.602-12.438L64.687 23.41zM18.789 61.104l13.305 8.899-13.305 8.893V61.104zm45.898 55.486L23.045 88.833l18.603-12.437 23.039 15.413v24.781zm5.317-34.02L51.209 70.002l18.795-12.573L88.8 70.002 70.004 82.57zm5.308 34.02V91.809l23.046-15.413 18.599 12.437-41.645 27.757zm45.896-37.695-13.289-8.893 13.289-8.899v17.792z"></path><path fill="#4c5054" d="M131.752 50.234c-.031-.15-.052-.297-.099-.443-.017-.088-.051-.173-.079-.258a8.399 8.399 0 0 0-.131-.388 3.567 3.567 0 0 0-.128-.255 2.22 2.22 0 0 0-.182-.357c-.048-.082-.1-.164-.149-.242a2.7 2.7 0 0 0-.223-.328 6.794 6.794 0 0 0-.183-.229c-.083-.102-.179-.198-.27-.29a1.859 1.859 0 0 0-.205-.202c-.1-.091-.2-.182-.301-.261-.081-.058-.159-.121-.24-.178-.034-.021-.057-.045-.09-.068L72.95 9.053a5.327 5.327 0 0 0-5.899 0L10.535 46.736c-.033.023-.061.047-.09.068-.087.057-.164.12-.244.178-.104.079-.2.169-.296.261a1.755 1.755 0 0 0-.212.202 3.14 3.14 0 0 0-.264.29 3.583 3.583 0 0 0-.186.229 2.68 2.68 0 0 0-.22.328c-.058.078-.105.16-.157.242-.062.114-.126.231-.176.357-.047.079-.083.169-.122.255-.055.131-.096.25-.139.388-.028.085-.061.17-.078.258-.045.146-.067.292-.099.443-.012.076-.033.152-.041.235a5.376 5.376 0 0 0-.051.692v4.017l10.627 6.813v-.887l13.305 8.899-.398.263 9.762 6.26.19-.129 9.008 6.026L70 94.828l19.44-12.467 8.916-5.963.191.125 9.759-6.26-.389-.26 13.289-8.899v.889l10.63-6.815v-4.017c0-.237-.015-.468-.041-.692-.012-.083-.036-.159-.043-.235zm-108.707.93L64.687 23.41v24.783l-23.04 15.409-18.602-12.438zM70.004 82.57 51.209 70.002l18.795-12.573L88.8 70.002 70.004 82.57zm28.353-18.968L75.312 48.193V23.41l41.645 27.754-18.6 12.438z"></path><path fill="#72818e" d="M131.797 50.469c-.014-.083-.038-.159-.045-.235-.031-.15-.052-.297-.099-.443-.017-.088-.051-.173-.079-.258a8.399 8.399 0 0 0-.131-.388 3.567 3.567 0 0 0-.128-.255 2.22 2.22 0 0 0-.182-.357c-.048-.082-.1-.164-.149-.242a2.7 2.7 0 0 0-.223-.328 6.794 6.794 0 0 0-.183-.229c-.083-.102-.179-.198-.27-.29a1.859 1.859 0 0 0-.205-.202c-.1-.091-.2-.182-.301-.261-.081-.058-.159-.121-.24-.178-.034-.021-.057-.045-.09-.068L72.95 9.053a5.327 5.327 0 0 0-5.899 0L10.535 46.736c-.033.023-.061.047-.09.068-.087.057-.164.12-.244.178-.104.079-.2.169-.296.261a1.755 1.755 0 0 0-.212.202 3.14 3.14 0 0 0-.264.29 3.583 3.583 0 0 0-.186.229 2.68 2.68 0 0 0-.22.328c-.058.078-.105.16-.157.242-.062.114-.126.231-.176.357-.047.079-.083.169-.122.255-.055.131-.096.25-.139.388-.028.085-.061.17-.078.258-.045.146-.067.292-.099.443-.012.076-.033.152-.041.235a5.376 5.376 0 0 0-.051.692v4.017l.084.054a.8.8 0 0 0 .008-.048c.031-.151.054-.298.099-.443.018-.088.05-.173.078-.259.043-.137.084-.256.139-.387.039-.086.075-.176.122-.255.05-.125.114-.242.176-.356.052-.082.1-.164.157-.242a2.57 2.57 0 0 1 .22-.328 3.52 3.52 0 0 1 .186-.229c.08-.102.171-.198.264-.291a1.76 1.76 0 0 1 .212-.202c.096-.091.192-.181.296-.26.08-.058.157-.122.244-.179.029-.021.057-.044.09-.067l56.516-37.683a5.327 5.327 0 0 1 5.899 0l56.523 37.683c.033.023.056.047.09.067.081.057.159.121.24.179.101.079.201.169.301.26.071.058.142.132.205.202.091.093.187.189.27.291.061.074.125.153.183.229.081.1.155.214.223.328.05.078.102.16.149.242.072.114.13.231.182.356.043.079.09.169.128.255.048.131.088.25.131.387.028.086.062.171.079.259.047.146.067.292.099.443.001.014.007.029.009.044l.077-.05v-4.017a6.202 6.202 0 0 0-.042-.693z"></path><path fill="#72818e" d="m98.357 68.551 18.599-12.439-3.706-2.47-14.893 9.96-23.045-15.409v4.948zM70.004 87.519 88.8 74.951l-3.7-2.475L70.004 82.57 54.909 72.476l-3.7 2.475zM41.647 68.551l23.04-15.41v-4.948l-23.04 15.409-14.895-9.96-3.707 2.47z"></path><path fill="none" stroke="#33363a" stroke-linecap="round" stroke-linejoin="round" stroke-miterlimit="10" stroke-width="3" d="M131.752 50.234c-.031-.15-.052-.297-.099-.443-.017-.088-.051-.173-.079-.258a8.399 8.399 0 0 0-.131-.388 3.567 3.567 0 0 0-.128-.255 2.22 2.22 0 0 0-.182-.357c-.048-.082-.1-.164-.149-.242a2.7 2.7 0 0 0-.223-.328 6.794 6.794 0 0 0-.183-.229c-.083-.102-.179-.198-.27-.29a1.859 1.859 0 0 0-.205-.202c-.1-.091-.2-.182-.301-.261-.081-.058-.159-.121-.24-.178-.034-.021-.057-.045-.09-.068L72.95 9.053a5.327 5.327 0 0 0-5.899 0L10.535 46.736c-.033.023-.061.047-.09.068-.087.057-.164.12-.244.178-.104.079-.2.169-.296.261a1.755 1.755 0 0 0-.212.202 3.14 3.14 0 0 0-.264.29 3.583 3.583 0 0 0-.186.229 2.68 2.68 0 0 0-.22.328c-.058.078-.105.16-.157.242-.062.114-.126.231-.176.357-.047.079-.083.169-.122.255-.055.131-.096.25-.139.388-.028.085-.061.17-.078.258-.045.146-.067.292-.099.443-.012.076-.033.152-.041.235a5.376 5.376 0 0 0-.051.692v4.017l10.627 6.813v-.887l13.305 8.899-.398.263 9.762 6.26.19-.129 9.008 6.026L70 94.828l19.44-12.467 8.916-5.963.191.125 9.759-6.26-.389-.26 13.289-8.899v.889l10.63-6.815v-4.017c0-.237-.015-.468-.041-.692-.012-.083-.036-.159-.043-.235zm-108.707.93L64.687 23.41v24.783l-23.04 15.409-18.602-12.438zM70.004 82.57 51.209 70.002l18.795-12.573L88.8 70.002 70.004 82.57zm28.353-18.968L75.312 48.193V23.41l41.645 27.754-18.6 12.438z"></path></svg>